<?xml version="1.0" encoding="UTF-8" standalone="no"?>
<svg
   xmlns:dc="http://purl.org/dc/elements/1.1/"
   xmlns:cc="http://creativecommons.org/ns#"
   xmlns:rdf="http://www.w3.org/1999/02/22-rdf-syntax-ns#"
   xmlns:svg="http://www.w3.org/2000/svg"
   xmlns="http://www.w3.org/2000/svg"
   xmlns:sodipodi="http://sodipodi.sourceforge.net/DTD/sodipodi-0.dtd"
   xmlns:inkscape="http://www.inkscape.org/namespaces/inkscape"
   version="1.1"
   width="24"
   height="24"
   viewBox="0 0 24 24"
   id="svg4"
   sodipodi:docname="icon.svg"
   inkscape:export-filename="C:\Users\Dexter\Downloads\sprout-outline.png"
   inkscape:export-xdpi="2047.3212"
   inkscape:export-ydpi="2047.3212"
   inkscape:version="1.0.2-2 (e86c870879, 2021-01-15)">
  <metadata
     id="metadata10">
    <rdf:RDF>
      <cc:Work
         rdf:about="">
        <dc:format>image/svg+xml</dc:format>
        <dc:type
           rdf:resource="http://purl.org/dc/dcmitype/StillImage" />
        <dc:title></dc:title>
      </cc:Work>
    </rdf:RDF>
  </metadata>
  <defs
     id="defs8" />
  <sodipodi:namedview
     pagecolor="#ffffff"
     bordercolor="#666666"
     borderopacity="1"
     objecttolerance="10"
     gridtolerance="10"
     guidetolerance="10"
     inkscape:pageopacity="0"
     inkscape:pageshadow="2"
     inkscape:window-width="2291"
     inkscape:window-height="1368"
     id="namedview6"
     showgrid="false"
     inkscape:zoom="29.698485"
     inkscape:cx="11.939715"
     inkscape:cy="14.816342"
     inkscape:window-x="-7"
     inkscape:window-y="0"
     inkscape:window-maximized="0"
     inkscape:current-layer="layer2" />
  <g
     inkscape:groupmode="layer"
     id="layer1"
     inkscape:label="Background"
     style="display:inline">
    <rect
       style="fill:#393939;fill-opacity:1"
       id="rect840"
       width="24.007959"
       height="24.007959"
       x="-0.0039796829"
       y="-0.0039796829" />
  </g>
  <g
     inkscape:groupmode="layer"
     id="layer2"
     inkscape:label="Foreground">
    <path
       d="M 22.55,4.1 V 2.3 L 20.75,2.1 C 20.65,2.1 20.05,2 19.05,2 14.95,2 11.95,3.2 10.25,5.3 8.95,4.5 7.15,4 5.05,4 c -1,0 -1.7,0.1 -1.7,0.1 l -1.9,0.3 0.1,1.7 c 0.1,3 1.6,8.7 6.8,8.7 0.1,0 0.1,0 0.2,0 v 3.4 c -3.8,0.5 -7,1.8 -7,1.8 v 2 h 20 v -2 c 0,0 -3.2,-1.3 -7,-1.8 V 15 c 6.3,-0.1 8,-7.2 8,-10.9 m -11,13.9 c -0.3,0 -0.7,0 -1,0 v -5.6 c 0,0 -0.2,-3.4 -3,-3.4 0,0 1.5,0.8 1.9,3.7 -0.4,0.1 -0.8,0.1 -1.1,0.1 -4.6,0 -4.8,-6.7 -4.8,-6.7 0,0 0.6,-0.1 1.5,-0.1 1.9,0 5,0.4 5.9,3.1 0.5,-4.5 5.6,-5.1 8.1,-5.1 0.9,0 1.5,0.1 1.5,0.1 0,0 0,9 -6.3,9 -0.2,0 -0.5,0 -0.7,0 0,-2 2,-5 2,-5 -3,1 -3,4.9 -3,4.9 v 5 c -0.3,0 -0.7,0 -1,0 z"
       id="path2"
       style="fill:#8bc34a;fill-opacity:1" />
  </g>
</svg>
